<svg width="14" height="2" viewBox="0 0 14 2" fill="none" xmlns="http://www.w3.org/2000/svg">
<path d="M0.890625 1.76221C0.757812 1.76221 0.636068 1.729 0.525391 1.6626C0.414714 1.59619 0.323405 1.50765 0.251465 1.39697C0.185059 1.28076 0.151855 1.15348 0.151855 1.01514C0.151855 0.882324 0.185059 0.760579 0.251465 0.649902C0.323405 0.533691 0.414714 0.442383 0.525391 0.375977C0.636068 0.30957 0.757812 0.276367 0.890625 0.276367H13.1094C13.2422 0.276367 13.3639 0.30957 13.4746 0.375977C13.5908 0.442383 13.6821 0.533691 13.7485 0.649902C13.8149 0.760579 13.8481 0.882324 13.8481 1.01514C13.8481 1.15348 13.8149 1.28076 13.7485 1.39697C13.6821 1.50765 13.5908 1.59619 13.4746 1.6626C13.3639 1.729 13.2422 1.76221 13.1094 1.76221H0.890625Z" fill="black"/>
</svg>
