<svg width="40" height="40" viewBox="0 0 40 40" fill="none" xmlns="http://www.w3.org/2000/svg">
<rect x="2" y="2" width="36" height="36" rx="6" fill="white"/>
<path d="M17.7588 27.3945H22.2412V22.5137C22.2412 22.3255 22.1831 22.1733 22.0669 22.0571C21.9562 21.9409 21.804 21.8828 21.6104 21.8828H18.3979C18.2043 21.8828 18.0493 21.9409 17.9331 22.0571C17.8169 22.1733 17.7588 22.3255 17.7588 22.5137V27.3945ZM12.6787 26.9048V20.314L19.502 14.5947C19.834 14.3125 20.166 14.3125 20.498 14.5947L27.3213 20.314V26.9048C27.3213 27.4803 27.1553 27.9285 26.8232 28.2495C26.4967 28.5705 26.043 28.731 25.4619 28.731H14.5464C13.9598 28.731 13.5005 28.5705 13.1685 28.2495C12.842 27.9285 12.6787 27.4803 12.6787 26.9048ZM10.8027 20.1396C10.5814 20.1396 10.4071 20.0732 10.2798 19.9404C10.1525 19.8021 10.0889 19.6471 10.0889 19.4756C10.0889 19.2598 10.1774 19.0799 10.3545 18.936L19.0039 11.6729C19.3138 11.4072 19.6458 11.2744 20 11.2744C20.3542 11.2744 20.6862 11.4072 20.9961 11.6729L29.6455 18.936C29.8226 19.0799 29.9111 19.2598 29.9111 19.4756C29.9111 19.6471 29.8475 19.8021 29.7202 19.9404C29.5985 20.0732 29.4242 20.1396 29.1973 20.1396C29.0811 20.1396 28.9731 20.112 28.8735 20.0566C28.7795 20.0013 28.6909 19.9404 28.6079 19.874L20.2905 12.8931C20.202 12.8156 20.1051 12.7769 20 12.7769C19.8949 12.7769 19.798 12.8156 19.7095 12.8931L11.4004 19.874C11.3118 19.9404 11.2178 20.0013 11.1182 20.0566C11.0241 20.112 10.9189 20.1396 10.8027 20.1396ZM25.4038 15.7319V13.748C25.4038 13.5654 25.4591 13.4215 25.5698 13.3164C25.6805 13.2057 25.8244 13.1504 26.0015 13.1504H26.8896C27.0723 13.1504 27.2161 13.2057 27.3213 13.3164C27.432 13.4215 27.4873 13.5654 27.4873 13.748V17.4917L25.4038 15.7319Z" fill="black"/>
</svg>
