<svg width="25" height="25" viewBox="0 0 25 25" fill="none" xmlns="http://www.w3.org/2000/svg">
<path d="M7.74922 20.6201C9.0024 21.2017 10.3677 21.502 11.7492 21.5001H15.9492C16.8372 21.5017 17.7005 21.2077 18.403 20.6645C19.1054 20.1214 19.6072 19.3599 19.8292 18.5001L21.4492 12.0201C21.5295 11.7221 21.5397 11.4096 21.479 11.1071C21.4184 10.8045 21.2886 10.5201 21.0998 10.276C20.9109 10.032 20.6682 9.83495 20.3905 9.70034C20.1128 9.56573 19.8078 9.49719 19.4992 9.50009H16.4992C16.6154 8.24701 16.6555 6.98803 16.6192 5.73009C16.6061 5.13063 16.3574 4.56046 15.9269 4.14308C15.4964 3.72569 14.9188 3.49469 14.3192 3.50009H14.2692C13.7686 3.49941 13.2828 3.66947 12.8919 3.98218C12.501 4.29489 12.2284 4.73157 12.1192 5.22009C11.7592 6.72009 11.3792 8.05009 11.0092 9.14009C10.8756 9.53572 10.6215 9.87959 10.2825 10.1235C9.94359 10.3674 9.5368 10.4991 9.11922 10.5001H7.69922" stroke="#A3A3A3" stroke-width="2" stroke-linecap="round" stroke-linejoin="round"/>
<path d="M7.5 9.5H3.5V21.5H7.5V9.5Z" stroke="#A3A3A3" stroke-width="2" stroke-linecap="round" stroke-linejoin="round"/>
</svg>
