<svg width="40" height="40" viewBox="0 0 40 40" fill="none" xmlns="http://www.w3.org/2000/svg">
<rect x="2" y="2" width="36" height="36" rx="6" fill="white"/>
<mask id="path-2-inside-1_261_2136" fill="white">
<path d="M20.5002 24.7083L13.2085 28.875V11.1667C13.2085 10.8904 13.3182 10.6254 13.5136 10.4301C13.7089 10.2347 13.9739 10.125 14.2502 10.125H26.7502C27.0264 10.125 27.2914 10.2347 27.4867 10.4301C27.6821 10.6254 27.7918 10.8904 27.7918 11.1667V28.875L20.5002 24.7083Z"/>
</mask>
<path d="M20.5002 24.7083L30.4229 7.34347C24.2743 3.82995 16.726 3.82995 10.5774 7.34347L20.5002 24.7083ZM13.2085 28.875H-6.7915C-6.7915 36.0044 -2.99634 42.5948 3.16996 46.1732C9.33626 49.7516 16.9412 49.777 23.1313 46.2399L13.2085 28.875ZM14.2502 10.125V-9.875V10.125ZM26.7502 10.125V-9.875V10.125ZM27.7918 28.875L17.869 46.2399C24.0591 49.777 31.6641 49.7516 37.8304 46.1732C43.9967 42.5948 47.7918 36.0044 47.7918 28.875H27.7918ZM10.5774 7.34347L3.28572 11.5101L23.1313 46.2399L30.4229 42.0732L10.5774 7.34347ZM33.2085 28.875V11.1667H-6.7915V28.875H33.2085ZM33.2085 11.1667C33.2085 16.1947 31.2111 21.0169 27.6557 24.5722L-0.628542 -3.71204C-4.57461 0.234034 -6.7915 5.58606 -6.7915 11.1667H33.2085ZM27.6557 24.5722C24.1004 28.1276 19.2782 30.125 14.2502 30.125V-9.875C8.66956 -9.875 3.31753 -7.65812 -0.628542 -3.71204L27.6557 24.5722ZM14.2502 30.125H26.7502V-9.875H14.2502V30.125ZM26.7502 30.125C21.7221 30.125 16.9 28.1276 13.3446 24.5722L41.6289 -3.71204C37.6828 -7.65813 32.3307 -9.875 26.7502 -9.875V30.125ZM13.3446 24.5722C9.78918 21.0168 7.79183 16.1947 7.79183 11.1667H47.7918C47.7918 5.58613 45.575 0.234081 41.6289 -3.71204L13.3446 24.5722ZM7.79183 11.1667V28.875H47.7918V11.1667H7.79183ZM37.7146 11.5101L30.4229 7.34347L10.5774 42.0732L17.869 46.2399L37.7146 11.5101Z" fill="black" mask="url(#path-2-inside-1_261_2136)"/>
</svg>
