<svg width="36" height="35" viewBox="0 0 36 35" fill="none" xmlns="http://www.w3.org/2000/svg">
<path d="M26.6877 20.8835C26.31 21.2495 26.1364 21.7789 26.2225 22.2981L27.5189 29.4731C27.6283 30.0812 27.3716 30.6966 26.8627 31.0481C26.3639 31.4127 25.7004 31.4564 25.1564 31.1647L18.6975 27.796C18.4729 27.6764 18.2235 27.6122 17.9683 27.605H17.5731C17.436 27.6254 17.3019 27.6691 17.1794 27.7362L10.7189 31.121C10.3996 31.2814 10.0379 31.3383 9.68352 31.2814C8.82018 31.1181 8.24414 30.2956 8.3856 29.4279L9.68352 22.2529C9.76956 21.7293 9.59602 21.197 9.21831 20.8252L3.95227 15.721C3.51185 15.2937 3.35873 14.652 3.55998 14.0731C3.75539 13.4956 4.25414 13.0741 4.85643 12.9793L12.1044 11.9279C12.6556 11.871 13.1398 11.5356 13.3877 11.0397L16.5814 4.49183C16.6573 4.346 16.755 4.21183 16.8731 4.09808L17.0043 3.996C17.0729 3.92016 17.1516 3.85745 17.2391 3.80641L17.3981 3.74808L17.646 3.646H18.26C18.8083 3.70287 19.291 4.031 19.5433 4.521L22.7794 11.0397C23.0127 11.5166 23.4662 11.8477 23.9898 11.9279L31.2377 12.9793C31.8502 13.0668 32.3621 13.4897 32.5648 14.0731C32.7558 14.6579 32.591 15.2995 32.1419 15.721L26.6877 20.8835Z" fill="#DEDEDE"/>
</svg>
