<svg width="14" height="16" viewBox="0 0 14 16" fill="none" xmlns="http://www.w3.org/2000/svg">
<path d="M1.43018 15.4692C0.987467 15.4692 0.638835 15.3696 0.384277 15.1704C0.135254 14.9767 0.0107422 14.7083 0.0107422 14.3652C0.0107422 13.8285 0.171224 13.2668 0.492188 12.6802C0.813151 12.0881 1.27799 11.5347 1.88672 11.02C2.49544 10.4998 3.22868 10.0793 4.08643 9.7583C4.94971 9.4318 5.91813 9.26855 6.9917 9.26855C8.0708 9.26855 9.03923 9.4318 9.89697 9.7583C10.7603 10.0793 11.4935 10.4998 12.0967 11.02C12.7054 11.5347 13.1702 12.0881 13.4912 12.6802C13.8177 13.2668 13.981 13.8285 13.981 14.3652C13.981 14.7083 13.8537 14.9767 13.5991 15.1704C13.3501 15.3696 13.0042 15.4692 12.5615 15.4692H1.43018ZM7 7.78271C6.40788 7.78271 5.86003 7.62223 5.35645 7.30127C4.85286 6.97477 4.44613 6.5376 4.13623 5.98975C3.83187 5.43636 3.67969 4.81657 3.67969 4.13037C3.67969 3.45524 3.83187 2.84652 4.13623 2.3042C4.44613 1.76188 4.85286 1.33301 5.35645 1.01758C5.86003 0.702148 6.40788 0.544434 7 0.544434C7.59212 0.544434 8.13997 0.699382 8.64355 1.00928C9.14714 1.31917 9.55111 1.74528 9.85547 2.2876C10.1654 2.82438 10.3203 3.43311 10.3203 4.11377C10.3203 4.8055 10.1654 5.42806 9.85547 5.98145C9.55111 6.53483 9.14714 6.97477 8.64355 7.30127C8.13997 7.62223 7.59212 7.78271 7 7.78271Z" fill="black"/>
</svg>
